<svg xmlns="http://www.w3.org/2000/svg" width="1000" height="830" viewBox="0 0 1000 830" role="img" aria-labelledby="title desc" data-source="pitch/writing/notes/technical-appendix.md" data-source-sha256="b0f4fb467020991fb10f47c608d569a126b54deb02eb41c0c7c8c54f755ff229">
  <title id="title">分享與資料邊界</title>
  <desc id="desc">由原始 Mermaid 區塊離線產生；來源雜湊 b0f4fb467020991fb10f47c608d569a126b54deb02eb41c0c7c8c54f755ff229</desc>
  <defs>
    <marker id="arrow" viewBox="0 0 10 10" refX="9" refY="5" markerWidth="8" markerHeight="8" orient="auto-start-reverse"><path d="M 0 0 L 10 5 L 0 10 z" fill="#062040"/></marker>
    <style>
      text { font-family: Montserrat, Noto Sans TC, PingFang TC, Microsoft JhengHei, sans-serif; fill: #062040; }
      .node { fill: #FFFFFF; stroke: #062040; stroke-width: 2; rx: 8; }
      .group { fill: #FCFDFF; stroke: #778AA4; stroke-width: 1.5; rx: 16; }
      .edge { fill: none; stroke: #062040; stroke-width: 2; marker-end: url(#arrow); }
      .dashed { stroke-dasharray: 8 7; }
      .label-bg { fill: #FFFFFF; opacity: .96; }
    </style>
  </defs>
  <rect width="100%" height="100%" fill="#FFFFFF"/>
<text class="" text-anchor="start" font-size="25" font-weight="700"><tspan x="35" y="36.0">分享與量測邊界</tspan></text>
  <rect class="group" x="25" y="60" width="950" height="180"/><text class="" text-anchor="start" font-size="21" font-weight="700"><tspan x="49" y="96.0">我們能處理與量測</tspan></text>
  <rect class="group" x="25" y="560" width="950" height="185"/><text class="" text-anchor="start" font-size="21" font-weight="700"><tspan x="49" y="596.0">App 外：子女資料不回傳 yoxi</tspan></text>
  <path class="edge" d="M 315 158.0 H 335.0 V 158.0 H 355"/>
  <path class="edge" d="M 605 158.0 H 625.0 V 158.0 H 645"/>
  <path class="edge dashed" d="M 480 196 V 365"/><rect class="label-bg" x="526.0" y="298" width="68" height="25" rx="4"/><text class="" text-anchor="middle" font-size="14" font-weight="500"><tspan x="560" y="315.0">移交圖片</tspan></text>
  <path class="edge" d="M 455 661.0 H 490.0 V 661.0 H 525"/>
  <path class="edge" d="M 490 447 V 520 H 470 V 661 H 455"/>
  <rect class="node" x="55" y="120" width="260" height="76" style="fill:#FFFFFF"/><text class="" text-anchor="middle" font-size="18" font-weight="500"><tspan x="185.0" y="164.0">卡片預覽與圖片輸出</tspan></text>
  <rect class="node" x="355" y="120" width="250" height="76" style="fill:#FFFFFF"/><text class="" text-anchor="middle" font-size="18" font-weight="500"><tspan x="480.0" y="164.0">使用者點擊分享</tspan></text>
  <rect class="node" x="645" y="120" width="300" height="76" style="fill:#FFFFFF"/><text class="" text-anchor="middle" font-size="18" font-weight="500"><tspan x="795.0" y="151.5">己方事件</tspan><tspan x="795.0" y="176.5">輸出、點擊、呼叫狀態</tspan></text>
  <rect class="node" x="305" y="365" width="370" height="82" style="fill:#FBEBDF"/><text class="" text-anchor="middle" font-size="18" font-weight="500"><tspan x="490.0" y="412.0">手機系統分享面板</tspan></text>
  <rect class="node" x="155" y="620" width="300" height="82" style="fill:#FFFFFF"/><text class="" text-anchor="middle" font-size="18" font-weight="500"><tspan x="305.0" y="667.0">LINE 自選對象並傳送</tspan></text>
  <rect class="node" x="525" y="620" width="350" height="82" style="fill:#FBEBDF"/><text class="" text-anchor="middle" font-size="18" font-weight="500"><tspan x="700.0" y="654.5">家人收圖與聊天</tspan><tspan x="700.0" y="679.5">收件人、已讀、回覆不回傳</tspan></text>
  <text class="" text-anchor="middle" font-size="16" font-weight="700"><tspan x="510" y="505.0">責任交接點</tspan></text>
  <text class="" text-anchor="middle" font-size="16" font-weight="600"><tspan x="500" y="795.0">沒有從 LINE 或聊天回到己方事件的箭頭。</tspan></text>
</svg>
